<svg width="1001" height="336" viewBox="0 0 1001 336" fill="none" xmlns="http://www.w3.org/2000/svg">
<path d="M476.23 161.09H399.88V38.707H365.74V191.215H476.23V161.09Z" fill="#1E90FF"/>
<path d="M520.32 81.5605H486.92V191.585H520.32V81.5605Z" fill="#1E90FF"/>
<path d="M503.609 69.4012C515.429 69.4012 524.059 60.7928 524.059 49.0023C524.059 37.2119 515.429 28.6035 503.609 28.6035C491.789 28.6035 483.159 37.2119 483.159 49.0023C483.159 60.7928 491.799 69.4012 503.609 69.4012Z" fill="#1E90FF"/>
<path d="M573.209 134.897C573.209 117.87 581.089 107.576 594.219 107.576C606.789 107.576 613.539 116.743 613.539 133.401V191.226H646.929V127.785C646.929 97.4709 629.479 78.9473 603.969 78.9473C589.899 78.9473 579.769 84.0046 573.209 92.7926V81.5607H539.819V191.216H573.209V134.897Z" fill="#1E90FF"/>
<path d="M697.199 165.959L710.52 150.986L737.339 191.215H775.43L730.969 128.343L773.18 81.5601H736.03L697.199 126.288V34.0293H663.81V191.215H697.199V165.959Z" fill="#1E90FF"/>
<path d="M827.009 78.9473C793.429 78.9473 769.789 103.087 769.789 136.393C769.789 169.889 793.419 193.839 827.009 193.839C853.649 193.839 875.219 179.425 880.849 158.468H847.269C844.459 163.705 836.579 167.076 827.009 167.076C814.439 167.076 805.619 159.775 802.999 147.057H883.479C884.039 143.126 884.229 139.575 884.229 136.393C884.229 102.897 860.589 78.9473 827.009 78.9473ZM802.809 125.541C805.619 112.443 813.869 105.331 827.009 105.331C840.139 105.331 848.769 112.443 851.579 125.541H802.809Z" fill="#1E90FF"/>
<path d="M966.199 81.5605L942.189 149.301L918.359 81.5605H881.409L924.739 188.223L904.849 236.881H937.679L1000.9 81.5605H966.199Z" fill="#1E90FF"/>
<path d="M225.369 109.909C216.399 104.742 204.919 107.815 199.749 116.762L143.469 213.989C127.949 240.791 93.4695 250.008 66.5995 234.537C53.5795 227.036 44.2695 214.936 40.3795 200.452C36.4895 185.969 38.4895 170.837 45.9995 157.859L102.28 60.6329C107.46 51.6853 104.389 40.244 95.4095 35.0769C86.4395 29.9099 74.9595 32.9822 69.7895 41.9297L13.5095 139.156C0.97949 160.802 -2.34051 186.009 4.13949 210.148C10.6195 234.288 26.1395 254.457 47.8395 266.956C62.5695 275.444 78.6795 279.474 94.5795 279.474C127.019 279.474 158.61 262.696 175.96 232.712L232.239 135.485C237.419 126.518 234.339 115.076 225.369 109.909Z" fill="#1E90FF"/>
<path d="M878.32 225.5C878.27 225.18 878.28 224.851 878.21 224.542C878.07 223.874 877.81 223.235 877.6 222.577C877.18 221.31 876.65 220.103 875.99 218.966C875.79 218.617 875.64 218.238 875.41 217.909C875.19 217.579 874.9 217.31 874.65 216.991C873.84 215.943 872.92 214.996 871.89 214.128C871.37 213.689 870.87 213.21 870.3 212.831C870.03 212.652 869.72 212.532 869.45 212.372C868.66 211.894 867.86 211.435 867 211.076C866.97 211.066 866.94 211.036 866.91 211.026C866.53 210.876 866.14 210.816 865.75 210.687C864.99 210.437 864.24 210.168 863.43 210.008C862.68 209.859 861.92 209.839 861.17 209.779C860.72 209.749 860.3 209.649 859.85 209.649H859.6C859.59 209.649 859.58 209.649 859.58 209.649H779.02C779.01 209.649 779 209.649 779 209.649H275.94L315.97 140.493C341.83 95.8145 326.43 38.4882 281.64 12.6929C236.85 -13.1025 179.38 2.25903 153.52 46.9371L97.2397 144.163C92.0597 153.111 95.1297 164.552 104.11 169.719C113.09 174.886 124.56 171.814 129.73 162.866L186.01 65.6402C193.53 52.6527 205.66 43.366 220.18 39.4857C234.7 35.6054 249.87 37.5904 262.88 45.0916C289.75 60.5728 298.99 94.9666 283.48 121.769L227.2 218.996C223.85 224.781 223.85 231.923 227.2 237.709C230.55 243.494 236.74 247.065 243.45 247.065H751.41L726.01 309.469C722.11 319.045 726.74 329.958 736.33 333.848C738.64 334.786 741.03 335.225 743.38 335.225C750.79 335.225 757.81 330.816 760.77 323.544L791.9 247.065H831.99L806.59 309.469C802.69 319.045 807.32 329.958 816.91 333.848C819.22 334.786 821.61 335.225 823.96 335.225C831.37 335.225 838.39 330.816 841.35 323.544L877.12 235.654C877.13 235.634 877.13 235.624 877.14 235.604L877.23 235.385C877.39 234.996 877.45 234.597 877.58 234.208C877.83 233.46 878.1 232.721 878.25 231.933C878.41 231.145 878.44 230.357 878.49 229.569C878.52 229.16 878.61 228.771 878.61 228.352C878.61 228.312 878.6 228.283 878.6 228.253C878.6 227.325 878.47 226.407 878.32 225.5Z" fill="#1E90FF"/>
</svg>
