<svg width="330" height="283" viewBox="0 0 330 283" fill="none" xmlns="http://www.w3.org/2000/svg">
<path d="M94.3697 282.311C78.0072 282.311 61.8335 278.014 47.2848 269.646C25.4429 257.056 9.79849 236.739 3.26104 212.426C-3.27642 188.113 0.0867799 162.707 12.7082 140.92L69.3914 42.9904C74.6062 33.9815 86.1697 30.8905 95.2012 36.0923C104.233 41.2941 107.331 52.8286 102.116 61.8376L45.4332 159.767C37.8755 172.847 35.8349 188.076 39.7649 202.664C43.6949 217.251 53.0665 229.426 66.1792 237.003C79.2919 244.542 94.5586 246.54 109.183 242.657C123.807 238.737 136.013 229.389 143.609 216.309L200.292 118.379C205.507 109.37 217.07 106.279 226.101 111.481C235.133 116.683 238.232 128.217 233.017 137.226L176.334 235.156C163.712 256.943 143.344 272.549 118.97 279.07C110.846 281.218 102.57 282.311 94.3697 282.311Z" fill="#1E90FF"/>
<path d="M244.848 249.629H244.318C237.554 249.629 231.319 246.048 227.956 240.206C224.593 234.363 224.593 227.201 227.956 221.359L284.639 123.429C300.284 96.4398 290.95 61.7986 263.893 46.1932C236.836 30.5877 202.071 39.8983 186.464 66.8874L129.781 164.817C124.566 173.826 113.002 176.917 103.971 171.715C94.9394 166.513 91.8409 154.979 97.0557 145.97L153.739 48.0403C179.775 3.03327 237.668 -12.4215 282.787 13.5499C327.907 39.5213 343.401 97.269 317.364 142.276L262.873 236.399C260.492 244.051 253.312 249.629 244.848 249.629Z" fill="#1E90FF"/>
</svg>
